<svg xmlns="http://www.w3.org/2000/svg" viewBox="0 0 120 120" role="img" aria-label="valkit logo">
  <defs>
    <linearGradient id="bg" x1="0" y1="0" x2="1" y2="1">
      <stop offset="0%" stop-color="#2b81ff"/>
      <stop offset="100%" stop-color="#0b4bc1"/>
    </linearGradient>
    <linearGradient id="arrow" x1="0" y1="0" x2="1" y2="1">
      <stop offset="0%" stop-color="#c3f6ff"/>
      <stop offset="100%" stop-color="#63c7ff"/>
    </linearGradient>
  </defs>
  <rect x="6" y="10" width="108" height="100" rx="30" fill="url(#bg)"/>
  <path d="M36 46 C36 36 44 30 60 30 C76 30 84 36 84 46 C100 46 104 60 104 64 C104 88 86 104 60 104 C34 104 16 88 16 64 C16 60 20 46 36 46 Z" fill="#0f4b9f"/>
  <path d="M44 60 L54 78 L66 58 L80 78" fill="none" stroke="url(#arrow)" stroke-width="8" stroke-linecap="round" stroke-linejoin="round"/>
  <path d="M44 52 L56 40 L68 52" fill="none" stroke="#d1f5ff" stroke-width="6" stroke-linecap="round" stroke-linejoin="round"/>
  <circle cx="64" cy="66" r="10" fill="#8cd5ff" opacity="0.8"/>
</svg>
